<svg id="Capa_1" enable-background="new 0 0 512.039 512.039" height="512" viewBox="0 0 512.039 512.039" width="512" xmlns="http://www.w3.org/2000/svg"><g><g><g><ellipse cx="364.454" cy="155.211" fill="#ccf5fc" rx="137.586" ry="138.687"/></g><g><path d="m419.708 127.113h-27.39v-27.628c0-7.802-6.275-14.127-14.015-14.127h-27.698c-7.74 0-14.015 6.325-14.015 14.127v27.627h-27.39c-7.74 0-14.015 6.325-14.015 14.127v27.941c0 7.802 6.275 14.127 14.015 14.127h27.39v27.627c0 7.802 6.275 14.127 14.015 14.127h27.698c7.74 0 14.015-6.325 14.015-14.127v-27.627h27.39c7.74 0 14.015-6.325 14.015-14.127v-27.94c0-7.802-6.275-14.127-14.015-14.127z" fill="#faf7f5"/></g><g><path d="m95.195 306.375-72.709-94.494c-46.628-64.298 52.764-137.535 52.764-137.535 18.348-13.289 43.875-9.058 57.015 9.45l30.743 43.303c.426.601.84 1.206 1.24 1.816 22.528 34.33 1.025 80.697-39.375 86.684l-10.55 1.564 126.971 162.119 4.68-9.659c17.92-36.986 68.274-43.568 93.889-11.512.455.57.902 1.151 1.341 1.742l31.604 42.669c13.508 18.237 9.76 44.039-8.37 57.629 0 0-99.392 73.237-146.021 8.939l-68.465-90.771" fill="#ff7d97"/></g></g><g><g><path d="m364.454 6.523c-81.379 0-147.586 66.701-147.586 148.688 0 81.986 66.207 148.687 147.586 148.687s147.586-66.701 147.586-148.687c-.001-81.987-66.208-148.688-147.586-148.688zm0 277.375c-70.351 0-127.586-57.729-127.586-128.687 0-70.959 57.235-128.688 127.586-128.688 70.352 0 127.586 57.729 127.586 128.688-.001 70.958-57.235 128.687-127.586 128.687z"/><path d="m419.708 117.113h-17.391v-17.627c0-13.304-10.772-24.127-24.015-24.127h-27.698c-13.242 0-24.016 10.823-24.016 24.127v17.627h-17.388c-13.242 0-24.015 10.823-24.015 24.127v27.941c0 13.304 10.773 24.127 24.015 24.127h17.39v17.628c0 13.304 10.773 24.127 24.016 24.127h27.698c13.242 0 24.015-10.823 24.015-24.127v-17.628h17.391c13.242 0 24.015-10.823 24.015-24.127v-27.941c-.002-13.304-10.774-24.127-24.017-24.127zm4.015 52.068c0 2.275-1.801 4.127-4.015 4.127h-27.391c-5.522 0-10 4.477-10 10v27.628c0 2.275-1.801 4.127-4.015 4.127h-27.698c-2.214 0-4.016-1.852-4.016-4.127v-27.628c0-5.523-4.478-10-10-10h-27.388c-2.214 0-4.015-1.851-4.015-4.127v-27.941c0-2.275 1.801-4.127 4.015-4.127h27.39c5.522 0 10-4.477 10-10v-27.627c0-2.275 1.802-4.127 4.016-4.127h27.698c2.214 0 4.015 1.852 4.015 4.127v27.627c0 5.523 4.478 10 10 10h27.391c2.214 0 4.015 1.852 4.015 4.127v27.941z"/><path d="m349.24 353.9c-.513-.692-1.035-1.371-1.564-2.032-13.967-17.479-35.646-26.422-58.002-23.919-21.19 2.372-39.628 14.473-50.254 32.721l-106.836-136.409c19.837-4.897 36.341-18.634 44.884-37.69 9.296-20.735 7.48-44.34-4.858-63.142-.467-.712-.949-1.418-1.448-2.12l-30.743-43.303c-7.92-11.156-19.683-18.519-33.121-20.733-13.407-2.211-26.873.977-37.98 9.021-1.066.786-26.334 19.552-46.043 46.854-27.656 38.31-30.728 74.481-8.883 104.603.056.077.112.153.17.227l72.708 94.494c3.368 4.377 9.647 5.196 14.023 1.827 4.377-3.368 5.195-9.647 1.827-14.023l-72.619-94.378c-40.04-55.47 49.774-122.832 50.615-123.454 6.684-4.841 14.827-6.772 22.931-5.438 8.131 1.34 15.257 5.807 20.064 12.577l30.743 43.302c.355.5.7 1.005 1.034 1.515 8.704 13.263 9.917 29.296 3.33 43.988-6.619 14.763-20.006 24.975-35.81 27.317l-10.55 1.564c-3.523.523-6.502 2.879-7.822 6.187s-.781 7.068 1.415 9.872l126.972 162.119c2.128 2.716 5.501 4.142 8.937 3.777 3.431-.368 6.431-2.478 7.935-5.583l4.68-9.659c7.065-14.582 20.869-24.361 36.926-26.158 15.721-1.759 30.353 4.265 40.156 16.535.379.473.749.956 1.112 1.445l31.603 42.67c10.224 13.802 7.384 33.395-6.265 43.626-.536.395-54.055 39.372-97.326 32.654-14.448-2.246-25.788-9.289-34.668-21.534-.037-.051-.074-.101-.111-.151l-68.465-90.771c-3.326-4.409-9.596-5.287-14.006-1.962-4.409 3.326-5.288 9.596-1.962 14.006l68.413 90.702c11.995 16.5 28.052 26.417 47.728 29.474 4.412.686 8.87 1 13.346.999 47.675-.003 96.672-35.661 98.982-37.363 22.488-16.857 27.156-48.969 10.407-71.582z"/><path d="m131.919 338.672c-1.589-3.876-5.59-6.387-9.771-6.161-4.157.226-7.818 3.1-9.03 7.081-1.203 3.952.226 8.31 3.481 10.834 3.339 2.589 8.131 2.731 11.639.386 3.913-2.614 5.491-7.796 3.681-12.14z"/></g></g></g></svg>