<svg id="_x33_0" enable-background="new 0 0 64 64" height="512" viewBox="0 0 64 64" width="512" xmlns="http://www.w3.org/2000/svg"><g><g><g><path d="m60 18c0 15-12 21-12 21v-14s-4-2-4-7h4v-5h-32v5h4c0 5-4 7-4 7v9 5s-12-6-12-21 12-16 16-16 10 2 12 6c2-4 8-6 12-6s16 1 16 16z" fill="#ff826e"/></g><g><path d="m48 13v5h-4-24-4v-5z" fill="#b4dd7f"/></g><g><path d="m16 25h9c-4.97 0-9 4.03-9 9z" fill="#e6e9ed"/></g><g><path d="m16 25s4-2 4-7h24c0 5 4 7 4 7h-23z" fill="#e6e9ed"/></g><g><path d="m16 34c0 4.97 4.03 9 9 9-1.91 0-3.64.76-4.9 2.01-.03-.01-.07-.01-.1-.01h-4v-6z" fill="#e6e9ed"/></g><g><path d="m48 39v6h-.05c-.51-4.51-4.32-8-8.95-8s-8.44 3.5-8.94 7.99l-.09.08c-1.27-1.28-3.03-2.07-4.97-2.07 4.97 0 9-4.03 9-9s-4.03-9-9-9h23z" fill="#e6e9ed"/></g><g><path d="m48 58v4h-9c2.79 0 5.2-1.64 6.33-4z" fill="#e6e9ed"/></g><g><path d="m32 55c0 3.87 3.13 7 7 7h-15c3.87 0 7-3.13 7-7v-1.4c.39-.65.68-1.37.84-2.14h.01c.22.29.46.57.72.83l-.04.04c-.34.83-.53 1.73-.53 2.67z" fill="#e6e9ed"/></g><g><path d="m24 62h-8v-4h1.67c1.13 2.36 3.54 4 6.33 4z" fill="#e6e9ed"/></g><g><path d="m39 58h6.33c-1.13 2.36-3.54 4-6.33 4-3.87 0-7-3.13-7-7 0-.94.19-1.84.53-2.67l.04-.04c1.19 1.22 2.71 2.1 4.43 2.48v1.23c0 1.2.8 2 2 2z" fill="#ffc729"/></g><g><path d="m32 50c0 .5-.05.99-.16 1.46-.16.77-.45 1.49-.84 2.14-.89 1.48-2.31 2.61-4 3.11l-.1-.03c.07-.2.1-.43.1-.68v-5c0-1.2-.8-2-2-2h-3v-1-1c0-.97-.94-1.93-1.9-1.99 1.26-1.25 2.99-2.01 4.9-2.01 1.94 0 3.7.79 4.97 2.07 1.26 1.26 2.03 3 2.03 4.93z" fill="#ffc729"/></g><g><path d="m31 53.6v1.4c0 3.87-3.13 7-7 7-2.79 0-5.2-1.64-6.33-4h7.33c.95 0 1.65-.51 1.9-1.32l.1.03c1.69-.5 3.11-1.63 4-3.11z" fill="#fcd770"/></g><g><path d="m44 45c-1 0-2 1-2 2v1 1h-3c-1.2 0-2 .8-2 2v3.77c-1.72-.38-3.24-1.26-4.43-2.48-.26-.26-.5-.54-.72-.83h-.01c.11-.47.16-.96.16-1.46 0-1.93-.77-3.67-2.03-4.93l.09-.08c.5-4.49 4.31-7.99 8.94-7.99s8.44 3.49 8.95 8z" fill="#fcd770"/></g><g><circle cx="25" cy="34" fill="#fcd770" r="9"/></g><g><path d="m62 45v14l-11-3v-8z" fill="#75b1f2"/></g><g><path d="m13 48v8l-11 3v-14z" fill="#b4dd7f"/></g><g><path d="m48 45 3 3v8l-3 2h-2.67-6.33c-1.2 0-2-.8-2-2v-1.23-3.77c0-1.2.8-2 2-2h3v-1-1c0-1 1-2 2-2h3.95z" fill="#f0d0b4"/></g><g><path d="m22 48v1h3c1.2 0 2 .8 2 2v5c0 .25-.03.48-.1.68-.25.81-.95 1.32-1.9 1.32h-7.33-1.67l-3-2v-8l3-3h4c.03 0 .07 0 .1.01.96.06 1.9 1.02 1.9 1.99z" fill="#f0d0b4"/></g></g><g><path d="m63 60.309v-16.618l-11.703 3.192-2.297-2.297v-5.004c2.422-1.447 12-8.026 12-21.582 0-15.343-11.889-17-17-17-4.121 0-9.367 1.794-12 5.149-2.633-3.355-7.879-5.149-12-5.149-5.111 0-17 1.657-17 17 0 13.556 9.578 20.135 12 21.582v5.004l-2.297 2.297-11.703-3.192v16.618l11.824-3.225 2.176 1.451v4.465h34v-4.465l2.176-1.451zm-24-3.309c-.645 0-1-.355-1-1v-5c0-.645.355-1 1-1h3 4v-2h-3v-1c0-.449.551-1 1-1h3.586l2.414 2.414v7.051l-2.303 1.535zm-6-2c0-.321.034-.635.083-.946.883.65 1.867 1.155 2.917 1.485v.461c0 1.738 1.262 3 3 3h4.467c-1.124 1.248-2.746 2-4.467 2-3.309 0-6-2.691-6-6zm-9 6c-1.721 0-3.344-.752-4.467-2h5.467c1.157 0 2.092-.566 2.596-1.453.824-.284 1.578-.694 2.249-1.212-.609 2.668-2.996 4.665-5.845 4.665zm-10-12.586 2.414-2.414h3.586c.449 0 1 .551 1 1v1h-3v2h7c.645 0 1 .355 1 1v5c0 .645-.355 1-1 1h-8.697l-2.303-1.535zm3-31.414v-3h30v3zm26.055 2c.225 2.254 1.18 3.891 2.157 5h-26.423c.977-1.109 1.932-2.746 2.157-5zm-1.199 26h-4.856v-1h6v-2h-3v-2h-2v2h-3v5h6v1h-2-4v2h1.166c-.101.311-.166.642-.166 1v2.417c-1.193-.483-2.255-1.257-3.097-2.249.058-.384.097-.773.097-1.168 0-1.971-.72-3.775-1.907-5.171.573-3.911 3.92-6.829 7.907-6.829 3.703 0 6.848 2.513 7.74 6h-2.74c-.804 0-1.58.401-2.144 1zm-16.856 3h-2v-1c0-.819-.417-1.607-1.034-2.172.91-.536 1.947-.828 3.034-.828 3.309 0 6 2.691 6 6 0 2.156-1.19 4.115-3 5.173v-4.173c0-1.738-1.262-3-3-3zm0-22c4.411 0 8 3.589 8 8s-3.589 8-8 8-8-3.589-8-8 3.589-8 8-8zm4.374 17.31c-.099-.065-.202-.124-.304-.185.141-.063.278-.131.415-.2-.04.127-.075.256-.111.385zm9.626-7.31c-1.606 0-3.13.38-4.482 1.057.31-.964.482-1.991.482-3.057 0-3.273-1.588-6.175-4.025-8h16.025v13.998c-1.832-2.44-4.743-3.998-8-3.998zm-22-10h2.025c-.768.575-1.45 1.257-2.025 2.025zm3.924 17.123c-.425.253-.828.545-1.204.877h-2.72v-4.025c1.015 1.356 2.361 2.447 3.924 3.148zm31.076 5.641 9-2.455v11.382l-9-2.455zm-47-30.764c0-13.051 9.398-15 15-15 4.031 0 9.423 2.083 11.105 5.447l.895 1.789.895-1.789c1.682-3.364 7.074-5.447 11.105-5.447 5.602 0 15 1.949 15 15 0 11.248-6.911 17.153-10 19.232v-12.85l-.553-.276c-.032-.016-2.907-1.506-3.376-5.106h3.929v-7h-34v7h3.93c-.459 3.559-3.251 5.041-3.377 5.105l-.553.277v12.85c-3.089-2.079-10-7.984-10-19.232zm7 37.236-9 2.455v-11.382l9 2.455zm5 5.764v-2h.094c.441.757.989 1.434 1.635 2zm12.274 0c.99-.872 1.761-1.982 2.226-3.243.465 1.261 1.236 2.371 2.226 3.243zm14.997 0c.646-.566 1.194-1.243 1.635-2h1.094v2z"/><path d="m24 40h2v-2h3v-5h-6v-1h6v-2h-3v-2h-2v2h-3v5h6v1h-6v2h3z"/></g></g></svg>