<svg id="Capa_1" enable-background="new 0 0 512 512" height="512" viewBox="0 0 512 512" width="512" xmlns="http://www.w3.org/2000/svg"><g><g><path d="m369.623 271.304h142.378v207.646h-142.378z" fill="#8cb7e8"/></g><g><path d="m0 271.304h142.378v207.646h-142.378z" fill="#b8d3f0"/></g><g><g><path d="m128 92.396h135.5v386.554h-135.5z" fill="#ebf3fb"/></g><g><path d="m256 92.396h128v386.554h-128z" fill="#d7e7f6"/></g><g><path d="m225.327 33.05v28.673h-28.673v61.346h28.673v28.673h30.673l15-118.692z" fill="#e07037"/></g><g><path d="m196.654 349.939h74.346v129.011h-74.346z" fill="#d7e7f6"/></g><g><path d="m256 349.939h59.346v129.011h-59.346z" fill="#b8d3f0"/></g><g><path d="m277.646 209.887h30v30h-30z" fill="#8cb7e8"/></g><g><g><path d="m204.354 209.887h30v30h-30z" fill="#b8d3f0"/></g><g><path d="m204.354 269.66h30v30h-30z" fill="#b8d3f0"/></g></g><g><g><path d="m49 323.26h30v30h-30z" fill="#ebf3fb"/></g><g><path d="m49 383.034h30v30h-30z" fill="#ebf3fb"/></g></g><g><g><path d="m433 323.26h30v30h-30z" fill="#d7e7f6"/></g><g><path d="m433 383.034h30v30h-30z" fill="#d7e7f6"/></g></g><g><path d="m277.646 269.66h30v30h-30z" fill="#8cb7e8"/></g></g><g><path d="m286.673 61.723v-28.673h-30.673v118.692h30.673v-28.673h28.673v-61.346z" fill="#dc4b4b"/></g></g></svg>